# xmcd
#
# Track frame offsets:
#	150
#	15760
#	30315
#	44295
#	58747
#	72003
#	90968
#	111149
#	123500
#	138323
#	152134
#	166002
#
# Disc length: 2453 seconds
# Revision: 0
# Processed by: cddbd v1.5.2PL0 Copyright (c) Steve Scherf et al.
# Submitted via: dBpowerAMP V12.0
#
DISCID=8609930c
DTITLE=Ian List - Where I'm Meant to Be
DYEAR=4201
DGENRE=Country
TTITLE0=This Land Australia
TTITLE1=Chasing Rainbows
TTITLE2=The Difference
TTITLE3=That Piece Of Land
TTITLE4=Overlooked An Orchid
TTITLE5=Sounds Of The Bush
TTITLE6=When The Brumbies Come To Water
TTITLE7=Spinning Like A Top
TTITLE8=Think I'll Go Somewhere
TTITLE9=You Ain't Going Nowhere
TTITLE10=Highest Bidder
TTITLE11=Old Wallerawang
EXTD=
EXTT0=
EXTT1=
EXTT2=
EXTT3=
EXTT4=
EXTT5=
EXTT6=
EXTT7=
EXTT8=
EXTT9=
EXTT10=
EXTT11=
PLAYORDER=
